<?xml version="1.0" standalone="no"?>
<!DOCTYPE svg PUBLIC "-//W3C//DTD SVG 20010904//EN"
 "http://www.w3.org/TR/2001/REC-SVG-20010904/DTD/svg10.dtd">
<svg version="1.0" xmlns="http://www.w3.org/2000/svg"
 width="16.000000pt" height="16.000000pt" viewBox="0 0 16.000000 16.000000"
 preserveAspectRatio="xMidYMid meet">
<metadata>
Created by potrace 1.11, written by Peter Selinger 2001-2013
</metadata>
<g transform="translate(0.000000,16.000000) scale(0.000679,-0.000679)"
fill="#000000" stroke="none">
<path d="M11590 22799 c-339 -39 -660 -173 -922 -386 -38 -31 -114 -104 -171
-163 l-103 -108 -90 -11 c-285 -38 -712 -121 -1054 -206 -283 -70 -714 -193
-775 -221 -16 -7 -102 -39 -190 -70 -202 -71 -492 -186 -705 -279 -231 -102
-623 -288 -700 -334 -36 -21 -112 -65 -170 -96 -359 -198 -751 -449 -1120
-719 l-165 -121 -100 5 c-576 29 -1114 -210 -1472 -655 -270 -336 -405 -758
-383 -1199 4 -78 2 -104 -10 -122 -8 -12 -63 -87 -121 -166 -245 -332 -509
-744 -704 -1098 -31 -58 -75 -134 -96 -170 -46 -78 -232 -468 -336 -705 -93
-211 -203 -490 -277 -700 -31 -88 -63 -173 -70 -190 -28 -61 -151 -492 -221
-775 -85 -342 -168 -769 -206 -1054 l-11 -90 -108 -103 c-173 -166 -273 -299
-374 -500 -246 -488 -246 -1078 0 -1566 99 -199 201 -335 374 -500 l108 -103
11 -90 c38 -285 121 -712 206 -1054 70 -283 193 -714 221 -775 7 -16 39 -102
70 -190 71 -202 186 -492 279 -705 102 -231 288 -623 334 -700 21 -36 65 -112
96 -170 199 -362 486 -807 731 -1135 49 -66 94 -127 99 -136 6 -10 8 -59 5
-116 -29 -573 211 -1112 655 -1470 336 -270 758 -405 1198 -383 57 3 106 1
116 -5 9 -5 70 -50 136 -99 328 -245 773 -532 1135 -731 58 -31 134 -75 170
-96 77 -46 469 -232 700 -334 213 -93 503 -208 705 -279 88 -31 174 -63 190
-70 59 -27 487 -149 760 -218 329 -82 856 -184 1100 -214 l59 -7 103 -107
c166 -173 299 -273 500 -374 536 -270 1173 -243 1698 72 119 71 212 147 342
277 l132 133 58 6 c242 29 770 132 1098 214 273 69 701 191 760 218 17 7 102
39 190 70 202 71 492 186 705 279 231 102 623 288 700 334 36 21 112 65 170
96 359 197 804 484 1137 732 65 49 125 93 134 98 10 6 59 8 116 5 650 -33
1253 281 1595 832 187 301 277 656 258 1021 -3 57 -1 106 5 116 6 9 49 69 98
134 248 333 535 778 732 1137 31 58 75 134 96 170 46 77 232 469 334 700 93
213 208 503 279 705 31 88 63 174 70 190 27 59 149 487 218 760 82 329 184
856 214 1100 l7 59 107 103 c173 166 273 299 374 500 246 488 246 1078 0 1566
-99 199 -201 335 -374 500 l-107 103 -7 59 c-30 244 -132 771 -214 1100 -69
273 -191 701 -218 760 -7 17 -39 102 -70 190 -71 202 -186 492 -279 705 -102
231 -288 623 -334 700 -21 36 -65 112 -96 170 -197 359 -484 804 -732 1137
-49 65 -92 125 -98 134 -6 10 -8 59 -5 116 33 650 -281 1253 -832 1595 -301
187 -656 277 -1021 258 -57 -3 -106 -1 -116 5 -9 6 -70 50 -136 99 -328 245
-773 532 -1135 731 -58 31 -134 75 -170 96 -77 46 -469 232 -700 334 -213 93
-503 208 -705 279 -88 31 -173 63 -190 70 -61 28 -492 151 -775 221 -342 85
-769 168 -1054 206 l-90 11 -103 108 c-166 173 -299 273 -500 374 -295 148
-649 212 -973 175z m-1566 -2011 c3 -24 12 -125 21 -225 26 -305 84 -683 170
-1121 25 -125 48 -236 51 -247 5 -19 -6 -23 -128 -49 -426 -91 -977 -273
-1403 -461 -336 -149 -787 -392 -1032 -557 -40 -26 -76 -48 -80 -48 -4 1 -66
88 -136 195 -228 346 -514 736 -706 963 -151 179 -153 181 -147 191 8 12 320
210 486 308 823 484 1773 856 2685 1052 77 16 149 32 160 34 49 11 54 8 59
-35z m3731 1 c939 -202 1905 -584 2740 -1084 152 -91 404 -252 424 -271 16
-14 26 1 -140 -196 -190 -224 -479 -618 -707 -963 -69 -104 -127 -192 -129
-195 -2 -2 -12 1 -21 7 -558 361 -1097 625 -1697 833 -207 71 -556 170 -760
215 -93 21 -171 39 -172 39 -1 1 18 100 43 221 88 442 152 856 179 1168 9 100
19 202 21 225 l6 44 36 -7 c20 -3 100 -20 177 -36z m-3046 -3386 c6 -21 31
-110 55 -197 25 -88 44 -160 43 -161 -1 -1 -65 -15 -142 -33 -616 -141 -1240
-425 -1766 -803 -60 -44 -113 -79 -117 -79 -7 0 -205 351 -200 355 45 35 186
134 285 199 389 254 838 469 1288 616 163 53 482 138 522 139 17 1 24 -7 32
-36z m2362 -7 c605 -152 1228 -435 1736 -790 76 -53 146 -102 156 -110 17 -13
12 -25 -80 -190 -54 -97 -101 -176 -106 -176 -4 0 -49 30 -100 67 -532 385
-1160 672 -1782 815 -77 18 -141 32 -142 33 -1 1 18 73 43 161 24 87 49 176
55 197 7 25 15 37 28 37 9 0 96 -20 192 -44z m-8831 -549 c265 -228 663 -523
1062 -786 97 -64 177 -120 178 -124 0 -4 -22 -40 -48 -80 -169 -252 -407 -693
-557 -1032 -188 -424 -370 -978 -461 -1403 -26 -122 -30 -133 -49 -128 -11 3
-122 26 -247 51 -438 86 -816 144 -1121 170 -100 9 -202 19 -225 21 l-44 6 7
36 c3 20 20 100 36 177 197 915 569 1864 1049 2680 132 223 306 495 318 495 4
0 50 -37 102 -83z m15287 -68 c542 -837 938 -1741 1187 -2709 41 -158 95 -395
111 -492 l7 -36 -44 -6 c-23 -2 -125 -12 -225 -21 -305 -26 -683 -84 -1121
-170 -125 -25 -236 -48 -248 -51 -19 -5 -22 1 -33 58 -60 313 -209 810 -356
1183 -189 482 -383 857 -719 1388 -9 15 -8 20 6 28 42 24 456 305 573 389 265
191 515 385 680 529 39 33 74 60 80 58 5 -2 51 -68 102 -148z m-7601 -10 c72
-34 127 -90 159 -163 14 -29 113 -448 235 -991 235 -1046 232 -1037 336 -1145
73 -76 135 -116 229 -146 128 -41 276 -29 393 30 26 13 405 250 842 526 437
276 813 511 835 523 62 32 183 35 260 6 82 -31 163 -112 194 -194 33 -87 27
-199 -15 -275 -17 -30 -252 -406 -523 -834 -271 -429 -504 -801 -517 -828 -60
-118 -71 -265 -29 -395 45 -141 138 -249 270 -313 72 -35 174 -60 1020 -250
544 -123 962 -221 991 -235 73 -32 129 -87 166 -162 80 -164 11 -362 -156
-442 -47 -23 -274 -78 -1001 -241 -849 -190 -948 -215 -1020 -250 -132 -64
-225 -172 -270 -313 -42 -130 -31 -277 29 -395 13 -26 250 -405 526 -842 276
-437 511 -813 523 -835 32 -63 35 -183 6 -260 -31 -82 -112 -163 -194 -194
-77 -29 -198 -26 -260 6 -22 12 -398 247 -835 523 -437 276 -816 513 -842 526
-118 60 -265 71 -395 29 -141 -45 -249 -138 -313 -270 -35 -72 -60 -171 -250
-1020 -163 -727 -218 -954 -241 -1001 -97 -203 -358 -252 -528 -99 -79 72 -83
85 -311 1100 -235 1046 -233 1037 -336 1145 -73 76 -135 116 -229 146 -128 41
-276 29 -393 -30 -27 -13 -406 -250 -843 -526 -436 -276 -812 -511 -834 -523
-27 -14 -65 -22 -120 -25 -110 -6 -179 21 -256 97 -76 77 -103 146 -97 256 3
55 11 93 25 120 12 22 247 398 523 835 276 437 513 816 526 842 59 117 71 265
30 393 -30 94 -70 156 -146 229 -108 104 -99 101 -1145 336 -543 122 -962 221
-991 235 -73 32 -129 87 -166 162 -80 164 -11 362 156 442 47 23 275 78 1001
241 1046 235 1037 233 1145 336 76 73 116 135 146 229 41 128 29 276 -30 393
-13 26 -250 405 -526 842 -276 437 -511 813 -523 835 -32 62 -35 183 -6 260
31 82 112 163 194 194 87 33 199 27 275 -15 30 -17 406 -252 835 -523 429
-271 801 -504 827 -517 117 -59 265 -71 393 -30 94 30 156 70 229 146 103 108
101 99 336 1145 122 543 221 962 235 991 79 176 277 247 451 163z m-4594
-1930 c90 -49 166 -94 170 -98 5 -4 -28 -67 -73 -141 -315 -528 -560 -1181
-670 -1787 -13 -68 -27 -123 -31 -123 -8 0 -336 94 -364 104 -14 5 -3 72 52
318 128 579 362 1174 660 1680 66 112 83 138 90 138 2 0 77 -41 166 -91z
m9135 -20 c266 -441 490 -979 630 -1509 46 -173 113 -503 105 -511 -7 -7 -355
-109 -370 -109 -5 0 -14 33 -21 73 -44 255 -149 649 -239 897 -117 321 -282
674 -441 940 -45 74 -77 138 -73 142 17 17 327 186 337 184 5 -1 38 -50 72
-107z m-9708 -4071 c110 -607 355 -1260 670 -1788 45 -74 77 -138 73 -142 -19
-19 -334 -188 -342 -183 -4 3 -42 62 -83 132 -324 552 -554 1153 -686 1793
-16 80 -31 158 -33 174 l-3 30 175 52 c96 29 182 53 191 53 12 1 20 -25 38
-121z m10259 71 c97 -28 180 -54 184 -58 8 -8 -59 -338 -105 -511 -139 -525
-346 -1026 -614 -1483 -41 -70 -79 -129 -83 -132 -8 -5 -323 165 -342 184 -5
4 28 67 73 141 159 266 324 619 441 940 90 248 195 642 239 898 7 39 16 72 21
72 5 0 88 -23 186 -51z m-12604 -682 c96 -439 273 -978 461 -1402 161 -363
327 -667 599 -1098 9 -15 8 -20 -6 -28 -42 -24 -455 -304 -573 -389 -204 -146
-450 -334 -573 -439 -197 -166 -182 -156 -196 -140 -7 8 -54 77 -103 154 -490
764 -858 1574 -1107 2438 -69 239 -152 578 -181 749 l-7 36 44 6 c23 2 125 12
225 21 316 27 747 94 1158 179 116 24 215 44 220 45 6 0 23 -59 39 -132z
m15028 78 c438 -86 816 -144 1121 -170 100 -9 202 -19 225 -21 l44 -6 -7 -36
c-16 -97 -70 -334 -111 -492 -216 -837 -544 -1634 -977 -2370 -97 -165 -296
-478 -308 -486 -10 -6 -12 -4 -191 147 -123 105 -369 293 -573 439 -118 85
-531 365 -573 389 -14 8 -15 13 -6 28 336 531 530 906 719 1388 147 373 296
870 356 1183 11 57 14 63 33 58 12 -3 123 -26 248 -51z m-10559 -2852 c420
-304 895 -545 1394 -707 160 -52 481 -136 518 -136 11 0 15 -6 11 -17 -17 -58
-86 -305 -96 -340 -7 -30 -16 -43 -29 -43 -35 0 -370 89 -526 140 -490 160
-993 409 -1402 694 -76 53 -146 102 -156 110 -17 13 -12 25 80 190 54 97 101
176 106 176 4 0 49 -30 100 -67z m6000 -109 c92 -165 97 -177 80 -190 -10 -8
-80 -57 -156 -110 -409 -285 -912 -534 -1402 -694 -155 -51 -491 -140 -526
-140 -10 0 -20 8 -23 18 -3 9 -26 91 -51 182 -25 91 -48 173 -51 183 -4 11 0
17 11 17 37 0 358 84 518 136 435 141 846 339 1222 589 77 51 167 114 200 138
33 25 65 46 70 46 6 1 54 -78 108 -175z m-7195 -1812 c289 -195 818 -474 1187
-627 418 -173 943 -338 1309 -411 80 -16 87 -19 82 -38 -3 -12 -26 -123 -51
-248 -86 -438 -144 -816 -170 -1121 -9 -100 -19 -202 -21 -225 l-6 -44 -36 7
c-97 16 -334 70 -492 111 -962 248 -1851 636 -2695 1177 -77 49 -146 96 -154
103 -16 14 -26 -1 140 196 192 227 478 617 706 963 70 107 132 194 136 195 4
0 34 -17 65 -38z m8385 -157 c228 -346 514 -736 706 -963 166 -197 156 -182
140 -196 -8 -7 -77 -54 -154 -103 -844 -541 -1733 -929 -2695 -1177 -158 -41
-395 -95 -492 -111 l-36 -7 -6 44 c-2 23 -12 125 -21 225 -26 305 -84 683
-170 1121 -25 125 -48 236 -51 248 -5 18 2 21 63 33 118 24 443 107 598 155
449 136 798 277 1236 497 215 108 577 316 689 396 25 18 50 32 55 32 6 0 68
-87 138 -194z"/>
<path d="M11726 13169 c-3 -17 -6 -50 -6 -73 0 -22 -3 -58 -6 -78 -7 -38 -7
-38 -55 -38 l-48 0 -15 53 c-8 28 -21 74 -28 100 -12 48 -13 48 -48 42 -58
-10 -72 -16 -67 -30 4 -10 21 -156 22 -189 0 -6 -72 -35 -92 -36 -2 0 -24 42
-49 93 -25 50 -47 93 -49 95 -3 3 -95 -36 -95 -41 0 -2 14 -43 30 -92 17 -49
30 -94 30 -100 0 -6 -18 -22 -41 -34 -35 -20 -42 -21 -52 -8 -7 8 -36 47 -66
85 l-55 70 -43 -29 c-24 -17 -42 -33 -40 -37 3 -4 26 -45 53 -91 l48 -84 -39
-33 -38 -34 -50 43 c-27 23 -64 54 -81 69 l-31 26 -37 -35 -37 -36 27 -32 c15
-18 46 -55 69 -82 l43 -50 -34 -38 -33 -39 -84 48 c-46 27 -87 50 -91 53 -4 2
-20 -16 -37 -40 l-29 -43 70 -55 c38 -30 77 -59 85 -66 13 -10 12 -17 -8 -52
-12 -23 -28 -41 -34 -41 -6 0 -51 14 -100 30 -49 17 -90 30 -92 30 -5 0 -44
-92 -41 -95 2 -2 45 -24 96 -49 50 -25 92 -47 92 -49 -1 -20 -30 -92 -36 -92
-33 1 -179 18 -189 22 -14 5 -20 -9 -30 -67 -6 -35 -6 -36 42 -48 26 -7 72
-20 101 -28 l52 -15 0 -48 c0 -48 0 -48 -37 -55 -21 -3 -57 -6 -79 -6 -23 0
-56 -3 -73 -6 -29 -6 -31 -9 -31 -54 0 -45 2 -48 31 -54 17 -3 50 -6 73 -6 22
0 58 -3 79 -6 37 -7 37 -7 37 -55 l0 -48 -52 -15 c-29 -8 -75 -21 -101 -28
-48 -12 -48 -13 -42 -48 11 -65 14 -70 43 -65 70 12 176 23 183 20 3 -3 9 -17
12 -32 3 -16 9 -36 12 -45 5 -14 -12 -26 -87 -64 -51 -25 -94 -47 -96 -49 -3
-3 36 -95 41 -95 2 0 43 14 92 30 49 17 94 30 100 30 6 0 22 -18 34 -41 20
-35 21 -42 8 -52 -8 -7 -47 -36 -85 -66 l-70 -55 29 -43 c17 -24 33 -42 37
-40 4 3 45 26 91 53 l84 48 33 -39 34 -38 -43 -50 c-23 -27 -54 -64 -69 -82
l-27 -32 37 -36 37 -35 31 26 c17 15 54 46 81 69 l50 43 38 -34 39 -33 -48
-84 c-27 -46 -50 -87 -53 -91 -2 -4 16 -20 40 -37 l43 -29 55 70 c30 38 59 77
66 85 10 13 17 12 52 -8 23 -12 41 -28 41 -34 0 -6 -13 -51 -30 -100 -16 -49
-30 -90 -30 -92 0 -5 92 -44 95 -41 2 2 24 45 49 96 25 50 47 92 49 92 20 -1
92 -30 92 -36 -1 -33 -18 -179 -22 -189 -5 -14 9 -20 67 -30 35 -6 36 -6 48
42 7 26 20 72 28 101 l15 52 48 0 c48 0 48 0 55 -37 3 -21 6 -57 6 -79 0 -23
3 -56 6 -73 6 -29 9 -31 54 -31 45 0 48 2 54 31 3 17 6 50 6 73 0 22 3 58 6
79 7 37 7 37 55 37 l48 0 15 -52 c8 -29 21 -75 28 -101 12 -48 13 -48 48 -42
65 11 70 14 65 43 -12 70 -23 176 -20 183 3 3 17 9 32 12 16 3 36 9 45 12 14
5 26 -12 64 -87 25 -51 47 -94 49 -96 3 -3 95 36 95 41 0 2 -13 43 -30 92 -16
49 -30 94 -30 100 0 6 18 22 41 34 35 20 42 21 52 8 7 -8 36 -47 66 -85 l55
-70 43 29 c24 17 42 33 40 37 -3 4 -26 45 -53 91 l-48 84 39 33 38 34 50 -43
c27 -23 64 -54 81 -69 l31 -26 37 35 37 36 -42 50 c-23 27 -54 64 -69 82 l-27
32 33 39 33 38 84 -48 c46 -27 87 -50 91 -53 4 -2 20 16 37 40 l29 43 -70 55
c-38 30 -77 59 -85 66 -13 10 -12 17 8 52 12 23 28 41 34 41 6 0 51 -13 100
-30 49 -16 90 -30 92 -30 5 0 44 92 41 95 -2 2 -45 24 -96 49 -75 38 -92 50
-87 64 3 9 9 29 12 45 3 15 9 29 12 32 7 3 113 -8 183 -20 29 -5 32 0 43 65 6
35 6 36 -42 48 -26 7 -72 20 -100 28 l-53 15 0 48 c0 48 0 48 38 55 20 3 56 6
78 6 23 0 56 3 73 6 29 6 31 9 31 54 0 45 -2 48 -31 54 -17 3 -50 6 -73 6 -22
0 -58 3 -78 6 -38 7 -38 7 -38 55 l0 48 53 15 c28 8 74 21 100 28 48 12 48 13
42 48 -10 58 -16 72 -30 67 -10 -4 -156 -21 -189 -22 -6 0 -35 72 -36 92 0 2
42 24 93 49 50 25 93 47 95 49 3 3 -36 95 -41 95 -2 0 -43 -13 -92 -30 -49
-16 -94 -30 -100 -30 -6 0 -22 18 -34 41 -20 35 -21 42 -8 52 8 7 47 36 85 66
l70 55 -29 43 c-17 24 -33 42 -37 40 -4 -3 -45 -26 -91 -53 l-84 -48 -33 39
-34 38 43 50 c23 27 54 64 69 82 l27 32 -37 36 -37 35 -31 -26 c-17 -15 -54
-46 -81 -69 l-50 -43 -38 34 -39 33 48 84 c27 46 50 87 53 91 2 4 -16 20 -40
37 l-43 29 -55 -70 c-30 -38 -59 -77 -66 -85 -10 -13 -17 -12 -52 8 -23 12
-41 28 -41 34 0 6 14 51 30 100 17 49 30 90 30 92 0 5 -92 44 -95 41 -2 -2
-24 -45 -49 -96 -38 -75 -50 -92 -64 -87 -9 3 -29 9 -45 12 -15 3 -29 9 -32
12 -3 7 8 113 20 183 5 29 0 32 -65 43 -35 6 -36 6 -48 -42 -7 -26 -20 -72
-28 -100 l-15 -53 -48 0 c-48 0 -48 0 -55 38 -3 20 -6 56 -6 78 0 23 -3 56 -6
73 -6 29 -9 31 -54 31 -45 0 -48 -2 -54 -31z m169 -1133 c179 -83 222 -317 84
-455 -52 -52 -122 -81 -199 -81 -47 0 -79 7 -115 24 -104 48 -165 143 -165
256 0 77 29 147 81 199 80 81 213 105 314 57z"/>
</g>
</svg>
